<svg width="240" height="43" viewBox="0 0 240 43" fill="none" xmlns="http://www.w3.org/2000/svg">
<path d="M42.6 42.5837C42.6 42.5837 0.0262506 42.5761 0.0169334 42.5668C0.00761621 42.5576 0 38.2206 0 38.2206H0.913947C1.75236 38.2206 1.83117 38.2169 1.86747 38.1762C1.88923 38.1518 2.00063 37.9806 2.115 37.7959C2.39701 37.3403 2.86479 36.6743 3.16099 36.3066C3.40654 36.0017 4.46478 34.6257 6.01024 32.6019L6.84317 31.5111H9.98926H13.1354L13.4472 32.5891C13.6187 33.1821 13.7813 33.7445 13.8084 33.8387L13.8578 34.0103L13.3344 34.6885C11.7172 36.7845 11.469 37.084 10.8423 37.6954C10.5558 37.9749 10.4085 38.1364 10.4139 38.1647C10.4216 38.2047 10.5313 38.2084 11.9026 38.2144C12.7168 38.2181 13.398 38.2123 13.4164 38.2018C13.4349 38.1912 13.5378 38.0085 13.6453 37.7957C13.8498 37.3909 14.0553 37.0821 14.4822 36.5381C14.6225 36.3593 14.7501 36.1965 14.7656 36.1767C14.7811 36.1568 14.8007 36.1405 14.8092 36.1405C14.8245 36.1405 14.9978 36.675 15.1139 37.0814C15.1484 37.2012 15.208 37.4907 15.2468 37.7245C15.2872 37.968 15.3325 38.1647 15.3529 38.1851C15.3826 38.2147 15.6374 38.2206 16.8966 38.2206H18.4048L18.4397 38.1635C18.459 38.1321 18.5592 37.947 18.6625 37.752C18.7657 37.5571 18.9375 37.2806 19.0442 37.1376C19.3206 36.7673 19.8054 36.2096 19.8296 36.234C19.8875 36.2921 20.1409 37.2341 20.22 37.6853C20.2721 37.9814 20.3198 38.1858 20.3399 38.1986C20.3778 38.2226 24.1428 38.229 24.2048 38.2052C24.2269 38.1967 24.245 38.1762 24.245 38.1595C24.245 38.1429 24.1467 37.953 24.0266 37.7373C23.5642 36.9077 23.5974 36.9963 22.6985 34.1967C22.4739 33.4974 22.2902 32.9116 22.2902 32.8952C22.2902 32.8787 22.5082 32.5576 22.7746 32.1816L23.259 31.4981L26.4234 31.5045L29.5879 31.5111L30.0523 33.0077C30.7393 35.222 31.146 36.5552 31.2139 36.8162C31.2907 37.1103 31.3504 37.5111 31.3708 37.8691C31.3817 38.0583 31.3985 38.1604 31.4228 38.1847C31.453 38.215 31.7658 38.2206 33.435 38.2206C34.522 38.2206 35.4294 38.2136 35.4515 38.2052C35.5099 38.1827 35.5021 38.1551 35.4002 38.0225C35.2141 37.7803 34.91 37.0763 34.5309 36.0102C34.3095 35.3877 33.839 33.9569 33.2061 31.9826C32.9807 31.2792 32.7624 30.6119 32.7209 30.4995C32.5775 30.1108 30.6455 23.374 30.6067 23.1273C30.5859 22.9947 30.5563 22.7663 30.5411 22.6199C30.5258 22.4734 30.5074 22.3335 30.5001 22.3092C30.4877 22.2675 30.3896 22.2647 28.9036 22.2647H27.3201L27.2089 22.4994C27.0624 22.808 26.6689 23.484 26.4595 23.7868C25.8979 24.5985 21.4924 30.4066 21.4623 30.3749C21.4402 30.3516 20.9955 28.7699 21.0044 28.7466C21.0148 28.7193 21.9575 27.5184 24.1409 24.7508C25.1639 23.4539 25.6494 22.8955 26.0707 22.5311C26.1836 22.4335 26.276 22.3336 26.276 22.3092C26.276 22.2674 26.1821 22.2647 24.6517 22.2647H23.0274L23.0148 22.3219C23.0079 22.3532 22.9901 22.4496 22.9754 22.5359C22.9159 22.8845 22.8071 23.111 22.5146 23.4951C22.0429 24.1146 20.0368 26.6372 20.0075 26.6477C19.9965 26.6518 19.9391 26.4805 19.8798 26.2673C19.7052 25.6377 19.2598 24.066 19.1077 23.542C18.9732 23.0789 18.9305 22.834 18.9071 22.3916L18.901 22.2775L16.9731 22.271C15.7926 22.2669 15.0358 22.2737 15.0212 22.2883C15.0061 22.3033 15.0403 22.396 15.1122 22.5358C15.4158 23.1258 15.5584 23.5251 16.5023 26.4261C17.0209 28.0201 17.4401 29.3436 17.434 29.3671C17.4158 29.4367 16.443 30.6632 16.4226 30.6423C16.372 30.5904 14.3254 23.8997 14.2792 23.6355C14.2586 23.5174 14.2184 23.1864 14.1899 22.8998C14.1614 22.6133 14.1327 22.3532 14.1262 22.3218L14.1145 22.2647H12.4438H10.7732L10.4279 22.9559C10.238 23.3362 9.99652 23.7915 9.89124 23.9678C9.65097 24.3701 8.12204 26.4175 5.91562 29.2914C5.46037 29.8844 4.83189 30.7062 4.51898 31.1178C3.32796 32.6845 2.21538 34.1097 0.966092 35.669C0.497593 36.2539 0.0889828 36.7618 0.0580609 36.7979L0.00185323 36.8635L0 0H40.1234C40.1234 0 35.768 5.6834 27.0172 16.996C25.3249 19.1837 23.9403 20.9946 23.9403 21.0201C23.9403 21.0469 23.9646 21.0732 23.9975 21.0819C24.0724 21.102 26.3221 21.1018 26.3973 21.0818C26.4583 21.0653 26.4953 21.0181 29.8941 16.608C30.9533 15.2336 32.0841 13.7669 32.4069 13.3484C33.7709 11.5799 42.5653 0.0132416 42.5776 0L42.6 42.5837ZM17.5457 34.0819C17.3162 33.3714 17.2151 33.0245 17.2296 32.9958C17.2658 32.9236 18.2361 31.676 18.2559 31.676C18.2663 31.676 18.3116 31.7872 18.3567 31.9233C18.5136 32.3972 18.8309 33.2883 18.9078 33.4712L18.9853 33.6555L18.8446 33.8516C18.4221 34.4409 17.9141 35.1259 17.8997 35.1259C17.8906 35.1259 17.7313 34.6561 17.5457 34.0819ZM8.447 29.5134C8.46051 29.4959 8.69968 29.1962 8.97848 28.8475C9.66126 27.9932 10.3562 27.0873 10.733 26.56C11.0526 26.1128 11.4243 25.5474 11.4243 25.5084C11.4243 25.4963 11.4358 25.4864 11.4497 25.4864C11.4652 25.4864 11.4751 25.5994 11.4751 25.7747C11.4751 25.9334 11.4926 26.1645 11.5139 26.2884C11.5568 26.5372 11.7915 27.329 12.2135 28.648C12.3659 29.1242 12.4906 29.5209 12.4906 29.5294C12.4906 29.538 11.5753 29.5451 10.4565 29.5451C8.83304 29.5451 8.42735 29.5387 8.447 29.5134ZM24.8461 29.4881C26.1499 27.8831 27.2295 26.4509 27.6695 25.7427L27.8432 25.4632L27.8567 25.8362C27.8642 26.0414 27.8877 26.2892 27.9091 26.3869C27.9614 26.6249 28.2149 27.462 28.5621 28.543C28.7189 29.0313 28.8526 29.4566 28.8592 29.488L28.8714 29.5451H26.8356H24.7998L24.8461 29.4881Z" fill="#2F2E41" fill-opacity="0.5"/>
<path d="M55.6804 36.6967L61.983 17.9126H66.5714L72.7948 36.6967H69.1557L67.6526 32.0467H60.4535L58.9767 36.6967H55.6804ZM64.0662 20.7762L61.2709 29.4983H66.8351L64.0662 20.7762Z" fill="#2F2E41" fill-opacity="0.5"/>
<path d="M73.5396 36.6967L79.6048 27.055L73.9615 17.9126H77.9171L81.9254 24.5855L85.9073 17.9126H89.52L83.9559 26.9762L89.9947 36.6967H85.9864L81.5562 29.3669L77.1259 36.6967H73.5396Z" fill="#2F2E41" fill-opacity="0.5"/>
<path d="M90.718 36.6967L97.0205 17.9126H101.609L107.832 36.6967H104.193L102.69 32.0467H95.4911L94.0143 36.6967H90.718ZM99.1038 20.7762L96.3085 29.4983H101.873L99.1038 20.7762Z" fill="#2F2E41" fill-opacity="0.5"/>
<path d="M115.411 36.6967V17.9126H120.105L125.063 30.7331L129.915 17.9126H134.556V36.6967H131.049V22.5101L125.432 36.6967H124.298L118.576 22.5101V36.6967H115.411Z" fill="#2F2E41" fill-opacity="0.5"/>
<path d="M136.63 36.6967L142.933 17.9126H147.521L153.745 36.6967H150.105L148.602 32.0467H141.404L139.926 36.6967H136.63ZM145.016 20.7762L142.221 29.4983H147.785L145.016 20.7762Z" fill="#2F2E41" fill-opacity="0.5"/>
<path d="M155.832 36.6967V17.9126H160.024L167.961 31.4949V17.9126H171.152V36.6967H167.514L159.023 22.2999V36.6967H155.832Z" fill="#2F2E41" fill-opacity="0.5"/>
<path d="M181.097 36.9597C178.636 36.9597 176.79 36.4168 175.559 35.331C174.346 34.2451 173.67 32.7563 173.529 30.8648H176.904C177.045 31.9682 177.415 32.8264 178.012 33.4394C178.61 34.0349 179.638 34.3326 181.097 34.3326C182.152 34.3326 183.005 34.0699 183.655 33.5444C184.323 33.0015 184.657 32.3009 184.657 31.4427C184.657 30.567 184.385 29.9278 183.84 29.5249C183.295 29.1221 182.257 28.7981 180.728 28.5529C178.39 28.2376 176.694 27.6772 175.639 26.8715C174.601 26.0483 174.083 24.7786 174.083 23.0622C174.083 21.5034 174.689 20.2161 175.903 19.2003C177.116 18.1844 178.697 17.6765 180.649 17.6765C182.688 17.6765 184.297 18.1406 185.475 19.0689C186.652 19.9796 187.329 21.3282 187.505 23.1147H184.288C184.112 22.1339 183.735 21.4246 183.154 20.9867C182.574 20.5313 181.739 20.3037 180.649 20.3037C179.612 20.3037 178.811 20.5313 178.25 20.9867C177.687 21.4246 177.406 22.0201 177.406 22.7732C177.406 23.5788 177.66 24.1831 178.17 24.5859C178.697 24.9887 179.744 25.304 181.308 25.5317C183.646 25.8469 185.352 26.4162 186.424 27.2393C187.496 28.0449 188.032 29.3498 188.032 31.1537C188.032 32.8176 187.391 34.2013 186.107 35.3047C184.825 36.4081 183.154 36.9597 181.097 36.9597Z" fill="#2F2E41" fill-opacity="0.5"/>
<path d="M188.517 36.6967L194.82 17.9126H199.408L205.632 36.6967H201.992L200.489 32.0467H193.29L191.813 36.6967H188.517ZM196.903 20.7762L194.107 29.4983H199.672L196.903 20.7762Z" fill="#2F2E41" fill-opacity="0.5"/>
<path d="M207.719 36.6967V17.9126H214.047C216.21 17.9126 217.923 18.368 219.189 19.2787C220.455 20.1895 221.088 21.5731 221.088 23.4296V23.5347C221.088 26.1793 219.69 27.8607 216.895 28.5788L222.195 36.6967H218.398L213.467 29.1042H211.225V36.6967H207.719ZM211.225 26.6085H214.047C216.438 26.6085 217.633 25.6101 217.633 23.6135V23.5084C217.633 22.4751 217.326 21.7395 216.71 21.3016C216.113 20.8462 215.225 20.6186 214.047 20.6186H211.225V26.6085Z" fill="#2F2E41" fill-opacity="0.5"/>
<path d="M227.714 33.9382H229.771C231.845 33.9382 233.401 33.3777 234.438 32.2568C235.494 31.1183 236.021 29.4895 236.021 27.3703V27.1601C236.021 22.8341 233.929 20.6711 229.744 20.6711H227.714V33.9382ZM224.207 36.6967V17.9126H229.929C233.129 17.9126 235.555 18.7445 237.207 20.4084C238.86 22.0547 239.686 24.2878 239.686 27.1076V27.344C239.686 30.1813 238.851 32.4494 237.181 34.1484C235.511 35.8472 233.076 36.6967 229.876 36.6967H224.207Z" fill="#2F2E41" fill-opacity="0.5"/>
</svg>
