<svg width="72" height="43" viewBox="0 0 72 43" fill="none" xmlns="http://www.w3.org/2000/svg">
<path d="M50.3989 31.9461H57.8711V0L50.3989 1.59665V31.9461Z" fill="#2F2E41" fill-opacity="0.5"/>
<path d="M36.5951 9.07227C34.3145 9.07227 32.0852 9.75251 30.189 11.027C28.2928 12.3014 26.8149 14.1129 25.9422 16.2322C25.0695 18.3516 24.8411 20.6837 25.286 22.9336C25.7309 25.1835 26.8291 27.2502 28.4417 28.8722C30.0543 30.4943 32.1088 31.599 34.3456 32.0465C36.5823 32.4941 38.9007 32.2644 41.0076 31.3865C43.1146 30.5086 44.9154 29.022 46.1824 27.1146C47.4494 25.2073 48.1257 22.9648 48.1257 20.6708C48.1257 17.5947 46.9108 14.6446 44.7484 12.4694C42.586 10.2943 39.6532 9.07227 36.5951 9.07227ZM36.5951 24.4284C35.856 24.4284 35.1335 24.2079 34.5189 23.7948C33.9044 23.3818 33.4255 22.7946 33.1427 22.1078C32.8599 21.4209 32.786 20.6651 32.9303 19.9359C33.0745 19.2068 33.4305 18.537 33.9532 18.0114C34.4759 17.4858 35.1419 17.1279 35.8668 16.983C36.5917 16.8381 37.3431 16.9127 38.0258 17.1974C38.7086 17.482 39.2921 17.964 39.7026 18.5823C40.113 19.2005 40.332 19.9274 40.3318 20.6708C40.3314 21.6675 39.9376 22.6232 39.2369 23.3279C38.5362 24.0325 37.5859 24.4284 36.5951 24.4284Z" fill="#2F2E41" fill-opacity="0.5"/>
<path d="M36.5951 34.9736C35.856 34.9736 35.1336 35.1941 34.5191 35.6071C33.9046 36.0201 33.4257 36.6071 33.1428 37.294C32.86 37.9808 32.786 38.7365 32.9302 39.4656C33.0744 40.1948 33.4303 40.8645 33.9529 41.3902C34.4754 41.9158 35.1413 42.2738 35.8661 42.4188C36.5909 42.5639 37.3423 42.4894 38.0251 42.205C38.7079 41.9205 39.2914 41.4387 39.702 40.8206C40.1126 40.2025 40.3318 39.4758 40.3318 38.7324C40.3318 37.7355 39.9381 36.7794 39.2373 36.0745C38.5366 35.3696 37.5861 34.9736 36.5951 34.9736Z" fill="#2F2E41" fill-opacity="0.5"/>
<path d="M16.7757 1.47219C15.2277 0.50954 13.4436 -0.000250281 11.6237 9.21795e-08H0V31.9461H13.0802C15.0254 31.9447 16.9264 31.3618 18.5416 30.2713C20.1568 29.1809 21.4133 27.6321 22.1516 25.8218C22.8898 24.0115 23.0765 22.0213 22.6879 20.104C22.2993 18.1868 21.353 16.4289 19.9691 15.0538C20.6461 13.9511 21.1005 12.7251 21.3063 11.4458C21.5122 10.1665 21.4656 8.85886 21.169 7.59766C20.8725 6.33647 20.3319 5.14638 19.578 4.09537C18.8242 3.04435 17.872 2.15299 16.7757 1.47219ZM7.48282 7.51743H11.6343C12.2537 7.51743 12.8478 7.76495 13.2858 8.20554C13.7238 8.64613 13.9699 9.24369 13.9699 9.86678C13.9699 10.4899 13.7238 11.0874 13.2858 11.528C12.8478 11.9686 12.2537 12.2161 11.6343 12.2161H7.48282V7.51743ZM13.0873 24.4299H7.48282V19.7312H13.0873C13.3983 19.7242 13.7076 19.7797 13.997 19.8946C14.2864 20.0095 14.5501 20.1813 14.7726 20.4001C14.995 20.6189 15.1718 20.8802 15.2925 21.1687C15.4131 21.4572 15.4753 21.767 15.4753 22.0799C15.4753 22.3929 15.4131 22.7027 15.2925 22.9912C15.1718 23.2796 14.995 23.5409 14.7726 23.7597C14.5501 23.9785 14.2864 24.1504 13.997 24.2653C13.7076 24.3802 13.3983 24.4357 13.0873 24.4287V24.4299Z" fill="#2F2E41" fill-opacity="0.5"/>
<path d="M70.3257 26.0159C68.8315 26.0159 68.2611 24.7002 68.2611 22.9151V17.0168H71.9872V9.50058H68.2505V3.75879L60.7783 5.35544V24.8057C60.7783 29.3882 63.6065 32.0292 67.7839 32.2485C67.8251 32.2485 67.877 32.2591 67.9182 32.2591H67.9936C68.0867 32.2591 68.1692 32.2698 68.2635 32.2698H68.3566C69.6297 32.2643 70.8816 31.9414 72.0002 31.3298V25.7966C71.4546 25.9462 70.8912 26.02 70.3257 26.0159Z" fill="#2F2E41" fill-opacity="0.5"/>
</svg>
