<svg width="203" height="44" viewBox="0 0 203 44" fill="none" xmlns="http://www.w3.org/2000/svg">
<path d="M62.1033 6.0061H51.4667C51.1277 6.0061 50.8311 6.30278 50.8311 6.64183V30.6299C50.8311 30.9689 51.1277 31.2656 51.4667 31.2656H62.1457C70.5363 31.2656 75.9606 26.3069 75.9606 18.6359C75.9606 10.9224 70.5363 6.0061 62.1033 6.0061ZM62.1033 24.5693H58.4589V12.66H62.1457C65.9172 12.66 68.2056 14.8639 68.2056 18.5934C68.2056 21.5602 66.1291 24.5693 62.1033 24.5693Z" fill="#2F2E41" fill-opacity="0.5"/>
<path d="M123.168 12.4905C120.244 12.4905 117.829 14.101 116.769 15.7115C116.007 13.5924 114.227 12.4905 111.515 12.4905C108.506 12.4905 106.26 14.0162 105.455 15.0334V13.5924C105.455 13.2533 105.158 12.9567 104.819 12.9567H99.2677C98.9287 12.9567 98.6321 13.2533 98.6321 13.5924V30.5875C98.6321 30.9265 98.9287 31.2232 99.2677 31.2232H104.819C105.158 31.2232 105.455 30.9265 105.455 30.5875V19.9496C105.836 19.4834 106.684 18.5087 108.209 18.5087C109.565 18.5087 110.286 19.2292 110.286 20.543V30.5875C110.286 30.9265 110.582 31.2232 110.921 31.2232H116.473C116.812 31.2232 117.108 30.9265 117.108 30.5875V19.9496C117.49 19.4834 118.337 18.5087 119.905 18.5087C121.219 18.5087 121.982 19.2715 121.982 20.543V30.5875C121.982 30.9265 122.278 31.2232 122.617 31.2232H128.169C128.508 31.2232 128.804 30.9265 128.804 30.5875V17.9577C128.847 14.44 126.813 12.4905 123.168 12.4905Z" fill="#2F2E41" fill-opacity="0.5"/>
<path d="M137.788 12.9568H132.237C131.898 12.9568 131.601 13.2535 131.601 13.5925V30.5876C131.601 30.9267 131.898 31.2233 132.237 31.2233H137.788C138.127 31.2233 138.424 30.9267 138.424 30.5876V13.5925C138.424 13.2535 138.127 12.9568 137.788 12.9568Z" fill="#2F2E41" fill-opacity="0.5"/>
<path d="M135.161 3.97168C133.042 3.97168 131.347 5.66695 131.347 7.78603C131.347 9.90512 133.085 11.6004 135.161 11.6004C137.28 11.6004 138.975 9.90512 138.975 7.78603C139.018 5.70933 137.28 3.97168 135.161 3.97168Z" fill="#2F2E41" fill-opacity="0.5"/>
<path d="M154.4 12.4905C150.883 12.4905 148.933 14.0586 148.128 15.0334V13.5924C148.128 13.2533 147.832 12.9567 147.493 12.9567H141.941C141.602 12.9567 141.306 13.2533 141.306 13.5924V30.5875C141.306 30.9265 141.602 31.2232 141.941 31.2232H147.493C147.832 31.2232 148.128 30.9265 148.128 30.5875V19.9496C148.552 19.4411 149.4 18.5087 151.052 18.5087C152.832 18.5087 153.722 19.3987 153.722 21.1363V30.6299C153.722 30.9689 154.019 31.2656 154.358 31.2656H159.909C160.248 31.2656 160.545 30.9689 160.545 30.6299V18.2968C160.502 14.6519 158.214 12.4905 154.4 12.4905Z" fill="#2F2E41" fill-opacity="0.5"/>
<path d="M86.9784 12.4055C81.6389 12.4055 77.3164 16.7284 77.3164 22.0685C77.3164 27.4086 81.6389 31.7316 86.9784 31.7316C92.3178 31.7316 96.6403 27.4086 96.6403 22.0685C96.5979 16.7284 92.2754 12.4055 86.9784 12.4055ZM86.9784 25.2472C85.1561 25.2472 83.6729 23.7638 83.6729 21.9414C83.6729 20.119 85.1561 18.6356 86.9784 18.6356C88.8006 18.6356 90.2837 20.119 90.2837 21.9414C90.2414 23.7638 88.8006 25.2472 86.9784 25.2472Z" fill="#2F2E41" fill-opacity="0.5"/>
<path d="M172.156 12.4482C166.816 12.4482 162.494 16.7712 162.494 22.1112C162.494 27.4514 166.816 31.7743 172.156 31.7743C177.495 31.7743 181.818 27.4514 181.818 22.1112C181.818 16.7712 177.495 12.4482 172.156 12.4482ZM172.156 25.2475C170.334 25.2475 168.85 23.7641 168.85 21.9417C168.85 20.1193 170.334 18.636 172.156 18.636C173.978 18.636 175.461 20.1193 175.461 21.9417C175.461 23.7641 173.978 25.2475 172.156 25.2475Z" fill="#2F2E41" fill-opacity="0.5"/>
<path d="M187.157 7.06556C187.157 7.02318 187.157 7.02318 187.157 7.06556C187.157 7.02318 187.157 7.02318 187.157 7.02318C186.733 5.116 184.657 3.75979 182.623 4.18361C180.546 4.60742 179.19 6.51461 179.614 8.46416C179.953 10.0747 181.352 11.1766 183.004 11.2613C182.92 11.8971 182.326 12.4904 181.86 12.7871C181.521 12.9566 181.733 13.2957 181.733 13.2957L182.157 13.9314C182.284 14.1433 182.453 14.2704 182.665 14.1433C186.861 12.3633 187.581 8.76083 187.157 7.06556Z" fill="#2F2E41" fill-opacity="0.5"/>
<path d="M192.073 18.3814C192.073 17.7033 192.921 17.4066 194.065 17.4066C196.269 17.4066 197.54 18.0423 198.938 18.9747C199.066 19.0595 199.277 19.1019 199.447 19.0595C199.616 19.0171 199.786 18.89 199.871 18.7628L201.735 15.4994C201.905 15.2028 201.82 14.8213 201.523 14.6518C199.998 13.7194 197.752 12.5327 193.811 12.5327C188.175 12.5327 185.166 15.2028 185.674 19.0171C186.564 25.7134 196.989 23.4248 196.82 25.7134C196.777 26.222 195.845 26.6458 194.277 26.6458C192.2 26.6458 189.87 25.6287 188.387 24.6963C188.259 24.6115 188.048 24.5691 187.878 24.6115C187.709 24.6538 187.581 24.781 187.497 24.9082L185.335 28.5106C185.166 28.8073 185.251 29.1887 185.547 29.3582C187.624 30.7569 190.972 31.6893 193.896 31.6893C199.532 31.6893 202.795 29.2735 202.795 25.2896C202.71 17.9152 192.116 20.2038 192.073 18.3814Z" fill="#2F2E41" fill-opacity="0.5"/>
<path d="M42.9351 12.6618L31.0547 0.768609C30.5698 0.28317 29.8828 0 29.1958 0C28.4685 0 27.8219 0.28317 27.337 0.768609L17.3559 10.7201L0.787984 27.3059C-0.262661 28.3577 -0.262661 30.0163 0.787984 31.0681L12.6279 42.9209C13.1129 43.4063 13.7998 43.6895 14.4868 43.6895C15.2141 43.6895 15.8607 43.4063 16.3456 42.9209L31.1759 28.0745L42.8542 16.3836C43.9453 15.3723 43.9453 13.6732 42.9351 12.6618Z" fill="white"/>
<path d="M42.0865 13.4709L30.2061 1.61812C29.6404 1.05177 28.711 1.05177 28.1453 1.61812L15.3354 14.4418L29.2767 28.3982L42.0865 15.5745C42.6523 14.9677 42.6523 14.0777 42.0865 13.4709ZM31.6609 16.9094C30.9739 17.5972 30.1253 17.9208 29.2363 17.9208C28.3473 17.9208 27.4987 17.5972 26.8117 16.9094C26.1248 16.2217 25.8015 15.3722 25.8015 14.4823C25.8015 13.5923 26.1248 12.7023 26.8117 12.055C27.4987 11.3674 28.3473 11.0437 29.2363 11.0437C30.1253 11.0437 30.9739 11.3674 31.6609 12.055C32.3478 12.7427 32.6711 13.5923 32.6711 14.4823C32.6711 15.3722 32.3075 16.2622 31.6609 16.9094Z" fill="#2F2E41" fill-opacity="0.5"/>
<path d="M1.67699 28.1149C1.11125 28.6813 1.11125 29.6117 1.67699 30.1781L13.5169 42.0713C13.7998 42.3545 14.1635 42.5163 14.5676 42.5163C14.9313 42.5163 15.3353 42.3545 15.6182 42.0713L28.4281 29.2476L14.4868 15.2913L1.67699 28.1149ZM11.941 31.5534C11.254 32.2007 10.4054 32.5648 9.51638 32.5648C8.62741 32.5648 7.7384 32.2412 7.09185 31.5534C6.40489 30.8658 6.08162 30.0162 6.08162 29.1263C6.08162 28.2363 6.40489 27.3463 7.09185 26.6991C7.77881 26.0114 8.62741 25.6878 9.51638 25.6878C10.4054 25.6878 11.2944 26.0114 11.941 26.6991C12.628 27.3868 12.9512 28.2363 12.9512 29.1263C12.9512 30.0162 12.5875 30.8658 11.941 31.5534ZM17.1538 26.8204C17.8408 26.1327 18.6894 25.8091 19.5784 25.8091C20.4674 25.8091 21.3564 26.1327 22.0029 26.8204C22.6899 27.5081 23.0132 28.3577 23.0132 29.2476C23.0132 30.1376 22.6899 30.9871 22.0029 31.6748C21.316 32.3625 20.4674 32.6861 19.5784 32.6861C18.6894 32.6861 17.8408 32.3625 17.1538 31.6748C16.4668 30.9871 16.1436 30.1376 16.1436 29.2476C16.1436 28.3981 16.4668 27.5081 17.1538 26.8204Z" fill="#2F2E41" fill-opacity="0.5"/>
</svg>
