<svg width="328" height="222" viewBox="0 0 328 222" fill="none" xmlns="http://www.w3.org/2000/svg">
<g filter="url(#filter0_d)">
<rect x="4" width="320" height="214" fill="#1EA83C"/>
<rect x="4" width="320" height="214" stroke="white"/>
<rect width="278" height="176" transform="translate(22 8)" fill="white"/>
<path d="M300 8V184H278.399C257.64 174.915 235.806 168.53 213.428 165.002C172.912 158.55 134.743 161.714 103.31 167.951C84.0914 171.768 65.2117 177.135 46.8555 184H22V8H300Z" fill="#1EA83C"/>
<path d="M213.588 160.781C213.588 162.202 213.535 163.609 213.428 165.002C172.912 158.55 134.743 161.714 103.31 167.951C103.004 165.573 102.851 163.178 102.852 160.781C102.852 130.132 127.64 105.288 158.22 105.288C188.8 105.288 213.588 130.132 213.588 160.781Z" fill="#3F3D56"/>
<path d="M245.438 171.896L246.39 175.714L242.2 176.859L241.819 172.851L245.438 171.896Z" fill="#FBBEBE"/>
<path d="M230.201 176.669V180.295L226.011 181.059L225.249 179.15L226.773 175.905L230.201 176.669Z" fill="#FBBEBE"/>
<path d="M238.581 137.154L238.01 142.308L238.391 152.234C238.466 152.233 238.541 152.247 238.611 152.275C238.681 152.303 238.745 152.345 238.798 152.399C238.852 152.452 238.894 152.516 238.922 152.586C238.95 152.656 238.964 152.731 238.962 152.807C238.962 153.38 238.391 153.189 238.962 153.571C239.269 153.779 239.586 153.97 239.914 154.143L246.009 172.66C246.009 172.66 244.485 174.569 241.629 173.996L241.057 172.087C241.057 172.087 239.914 170.942 239.914 170.369C239.914 169.796 240.295 169.606 239.914 169.033C239.533 168.46 233.82 156.816 233.82 156.816L231.153 152.044L230.391 158.534C230.391 158.534 231.915 166.742 231.534 170.56C231.153 174.378 230.391 178.387 230.391 178.387L225.82 177.623C225.8 177.007 225.601 176.41 225.249 175.905C224.678 175.141 223.916 175.332 224.678 174.76C225.439 174.187 226.392 174.76 225.63 173.996C225.195 173.6 224.923 173.055 224.868 172.469V171.896L223.725 157.198L221.63 137.918L238.581 137.154Z" fill="#2F2E41"/>
<path d="M225.63 102.412C228.47 102.412 230.772 100.104 230.772 97.2578C230.772 94.4113 228.47 92.1038 225.63 92.1038C222.79 92.1038 220.488 94.4113 220.488 97.2578C220.488 100.104 222.79 102.412 225.63 102.412Z" fill="#FBBEBE"/>
<path d="M230.106 97.3532L232.201 102.507L227.249 106.134L224.201 100.789L230.106 97.3532Z" fill="#FBBEBE"/>
<path d="M230.391 101.267L232.296 100.312L233.439 102.985C233.439 102.985 240.867 105.275 240.295 115.774C239.724 126.273 238.391 130.282 238.391 130.282C238.391 130.282 241.629 137.154 239.724 137.918C237.819 138.681 221.63 141.545 221.249 138.872C220.868 136.2 222.583 120.547 222.583 120.547C222.583 120.547 222.011 109.284 226.773 106.993L225.82 104.893L230.391 101.267Z" fill="#D0CDE1"/>
<path d="M219.916 138.299C219.916 138.299 215.536 142.881 218.012 144.026C220.488 145.172 222.011 138.872 222.011 138.872L219.916 138.299Z" fill="#FBBEBE"/>
<path d="M228.868 179.341L230.963 178.577C230.963 178.577 233.248 183.732 231.344 183.732H226.392C226.392 183.732 223.535 182.777 222.011 182.777C220.488 182.777 217.631 179.914 219.726 178.577C221.821 177.241 224.487 177.623 224.487 177.623L225.249 175.905L226.201 178.577C226.201 178.577 227.344 180.486 228.868 179.341Z" fill="#2F2E41"/>
<path d="M244.295 175.141C244.295 175.141 245.488 174.387 246.129 174.669C246.771 174.951 247.152 178.005 247.152 178.005C247.152 178.005 249.057 180.295 244.866 180.677C240.676 181.059 239.724 180.296 239.343 179.15C238.962 178.005 239.724 176.859 239.724 176.859L240.867 176.478C240.867 176.478 242.2 175.523 241.819 175.141C241.438 174.76 241.819 173.996 241.819 173.996C241.819 173.996 243.152 176.669 244.295 175.141Z" fill="#2F2E41"/>
<path d="M227.389 97.1752C227.368 97.0084 227.33 96.8441 227.277 96.6847C227.001 96.1036 225.922 96.2732 225.73 95.6589C225.692 95.5386 225.7 95.4079 225.663 95.2874C225.599 95.14 225.489 95.0174 225.349 94.9373C225.21 94.8573 225.048 94.8241 224.889 94.8426C224.571 94.8866 224.26 94.967 223.96 95.0822C223.207 95.2965 222.405 95.2147 221.627 95.1312C221.279 95.1195 220.939 95.0307 220.63 94.8712C220.478 94.7879 220.356 94.6573 220.284 94.4991C220.212 94.3408 220.193 94.1634 220.23 93.9934C220.333 93.6771 220.678 93.5033 220.834 93.2092C221.08 92.7422 220.779 92.1391 220.979 91.6503C221.3 90.8662 222.514 91.0236 223.131 90.444C223.281 90.3033 223.389 90.1235 223.532 89.9764C223.958 89.5402 224.631 89.4557 225.237 89.5159C225.843 89.5761 226.438 89.7544 227.047 89.7437C227.625 89.7334 228.23 89.5572 228.762 89.7823C229.075 89.9428 229.35 90.169 229.568 90.4455L230.932 91.9456C231.12 92.1227 231.264 92.3406 231.354 92.5824C231.436 92.8699 231.361 93.1785 231.396 93.4754C231.476 94.1525 232.108 94.664 232.193 95.3405C232.211 95.5503 232.201 95.7614 232.163 95.9686L231.972 97.3813C231.963 97.519 231.926 97.6535 231.864 97.7771C231.809 97.8723 231.725 97.9475 231.662 98.0382C231.486 98.2944 231.502 98.633 231.414 98.9318C231.326 99.2305 231.011 99.5261 230.736 99.3821C230.556 99.2882 230.437 98.5114 230.219 98.3098C229.915 98.0289 229.756 98.0635 229.381 98.0682C228.629 98.0778 227.629 98.1424 227.389 97.1752Z" fill="#2F2E41"/>
<path d="M228.296 108.329C228.296 108.329 234.01 110.62 232.296 115.774C230.582 120.928 226.011 136.772 226.011 136.772L223.344 138.109L222.583 140.208L218.964 138.872L219.535 136.009C219.535 136.009 219.726 135.818 219.726 135.054C219.726 134.291 218.964 134.1 219.916 134.1C220.868 134.1 220.868 133.145 220.868 133.145L224.297 111.766C224.297 111.766 224.297 108.139 228.296 108.329Z" fill="#D0CDE1"/>
<path opacity="0.1" d="M232.582 116.824L226.677 137.059L224.201 139.54L225.63 136.963L232.582 116.824Z" fill="black"/>
<path d="M79.5941 110.717C79.6898 110.317 79.9179 109.961 80.2411 109.708C80.5644 109.455 80.9637 109.319 81.374 109.322C82.579 109.336 84.037 109.635 83.7086 111.061C83.1652 113.421 79.2712 123.677 79.2712 123.677L88.7799 124.857C88.7799 124.857 96.2058 123.768 93.8513 126.309C91.4967 128.851 88.4177 127.399 88.4177 127.399C88.4177 127.399 76.1921 127.728 76.1921 125.674C76.1921 125.129 76.2931 124.401 76.6826 122.787L79.5941 110.717Z" fill="#A0616A"/>
<path d="M86.7877 107.612C89.3885 107.612 91.4968 105.499 91.4968 102.892C91.4968 100.286 89.3885 98.1725 86.7877 98.1725C84.187 98.1725 82.0786 100.286 82.0786 102.892C82.0786 105.499 84.187 107.612 86.7877 107.612Z" fill="#A0616A"/>
<path d="M83.6182 105.524C83.6182 105.524 83.9805 109.155 82.7126 110.607H89.5952C89.5952 110.607 87.9651 109.155 89.2329 106.251C90.5007 103.346 83.6182 105.524 83.6182 105.524Z" fill="#A0616A"/>
<path d="M79.0902 119.321C79.2188 119.887 79.3474 120.386 79.4742 120.822V120.824C79.9542 122.485 80.3961 123.258 80.6569 123.601C80.7236 123.7 80.8062 123.787 80.9014 123.859L91.9497 120.773C91.9497 120.773 91.5875 116.961 90.6819 116.053C89.7763 115.145 90.1385 110.244 90.1385 110.244L87.2406 109.337C87.2406 109.337 84.551 109.246 82.7035 109.258C82.124 109.26 81.6277 109.273 81.3234 109.302C81.2424 109.308 81.162 109.32 81.0825 109.337C80.3581 109.518 78.1846 115.327 79.0902 119.321Z" fill="#A0616A"/>
<path d="M84.071 121.045C84.071 121.045 86.5162 109.881 87.4218 109.518C88.2792 109.174 89.9574 110.063 89.9574 110.063C89.9574 110.063 86.9329 108.338 85.4114 121.045H84.071Z" fill="#2F2E41"/>
<path d="M79.4741 120.822V120.824C79.9541 122.485 80.396 123.258 80.6568 123.601C81.2907 119.979 82.5984 112.226 82.7035 109.258C82.1239 109.26 81.6276 109.273 81.3234 109.302C81.2038 111.553 80.2638 115.438 79.4741 120.822Z" fill="#2F2E41"/>
<path d="M91.5874 118.594C91.5874 118.594 90.0479 120.864 88.7801 120.682C87.5122 120.5 80.4089 121.279 80.0665 122.523L82.0786 129.577V132.118C82.0786 132.118 79.5057 134.111 79.2467 139.603C79.1532 141.826 79.4572 144.048 80.1441 146.164L80.9919 148.819C80.9919 148.819 70.5776 175.413 76.0111 176.684C81.4447 177.954 86.9689 180.223 87.15 176.774C87.3311 173.325 88.4178 149.908 88.4178 149.908C88.4178 149.908 87.3311 176.23 91.4968 176.774C95.6626 177.319 103.632 181.131 103.994 176.593C104.356 172.055 94.757 134.66 94.757 134.66C94.757 134.66 94.9381 129.032 91.8591 126.854L91.1346 123.95C91.1346 123.95 93.2175 119.684 91.5874 118.594Z" fill="#2F2E41"/>
<path d="M90.8628 114.238L91.859 119.411V120.014L90.3062 115.144L90.8628 114.238Z" fill="#2F2E41"/>
<path d="M83.2064 173.946C83.2064 173.946 82.7744 178.749 84.1645 179.197C85.5546 179.645 92.3527 179.535 90.2405 182.031C88.7008 183.85 76.5866 182.639 77.1102 181.914C78.0724 180.583 80.0213 173.061 80.0213 173.061L83.2064 173.946Z" fill="#2F2E41"/>
<path d="M98.7827 174.309C98.7827 174.309 98.3507 179.112 99.7408 179.56C101.131 180.008 107.575 179.636 105.817 182.394C104.978 183.709 92.8097 182.386 92.6865 182.278C91.4541 181.193 95.5976 173.424 95.5976 173.424L98.7827 174.309Z" fill="#2F2E41"/>
<path d="M87.7445 111.261C87.8402 110.861 88.0683 110.506 88.3916 110.253C88.7148 109.999 89.1142 109.863 89.5244 109.867C90.7294 109.88 92.1874 110.179 91.859 111.606C91.3157 113.965 88.78 125.039 88.78 125.039L96.9304 125.402C96.9304 125.402 104.356 124.313 102.002 126.854C99.6471 129.395 96.5681 127.943 96.5681 127.943C96.5681 127.943 87.6027 129.305 86.1538 127.852C86.1393 127.838 86.1249 127.824 86.1105 127.809C85.5306 127.237 85.1083 126.523 84.8844 125.739C84.6606 124.954 84.6429 124.125 84.833 123.332L87.7445 111.261Z" fill="#A0616A"/>
<path d="M85.0663 95.3864C88.0746 95.3864 90.5133 98.774 90.5133 102.953V108.262H89.2088L88.4535 106.295L88.6423 108.262H80.2573L79.5708 106.474L79.7424 108.262H78.7983V104.093C78.7983 99.2846 81.6046 95.3864 85.0663 95.3864Z" fill="#2F2E41"/>
<path d="M84.4936 96.563C84.821 96.1225 85.2452 95.7634 85.7334 95.5137C86.2215 95.264 86.7605 95.1304 87.3086 95.1233H87.4421C90.0171 95.1233 92.1046 97.4586 92.1046 100.339H91.2418L91.1024 99.2764L90.8981 100.339H85.7808L85.3521 99.4401L85.4592 100.339H84.4525C83.9827 102.678 84.6577 105.016 86.4775 107.354H84.7625L83.9051 105.556L84.1195 107.354H80.8504L80.2073 103.217C80.2073 100.119 82.0034 97.4919 84.4936 96.563Z" fill="#2F2E41"/>
<path d="M254.445 94.6454L248.355 89.6381L253.351 83.5347L259.441 88.542L254.445 94.6454ZM249.007 89.5737L254.381 93.9919L258.789 88.6064L253.416 84.1882L249.007 89.5737Z" fill="#3F3D56"/>
<path d="M47.3352 122.973L41.2456 117.965L46.2416 111.862L52.3312 116.869L47.3352 122.973ZM41.8976 117.901L47.271 122.319L51.6792 116.934L46.3058 112.515L41.8976 117.901Z" fill="#3F3D56"/>
<path d="M65.9926 79.5458C65.4428 79.5458 64.9053 79.3824 64.4482 79.0762C63.991 78.77 63.6347 78.3349 63.4243 77.8258C63.2138 77.3166 63.1588 76.7564 63.2661 76.2159C63.3733 75.6754 63.6381 75.179 64.0269 74.7893C64.4157 74.3996 64.911 74.1343 65.4503 74.0267C65.9896 73.9192 66.5485 73.9744 67.0565 74.1853C67.5645 74.3962 67.9987 74.7533 68.3041 75.2115C68.6096 75.6697 68.7726 76.2084 68.7726 76.7595C68.7718 77.4982 68.4787 78.2064 67.9575 78.7288C67.4363 79.2511 66.7297 79.5449 65.9926 79.5458ZM65.9926 74.4376C65.5345 74.4376 65.0865 74.5738 64.7056 74.8289C64.3246 75.084 64.0277 75.4467 63.8523 75.8709C63.677 76.2952 63.6311 76.7621 63.7205 77.2125C63.8099 77.6629 64.0305 78.0766 64.3545 78.4013C64.6785 78.726 65.0913 78.9472 65.5407 79.0368C65.9901 79.1264 66.4559 79.0804 66.8792 78.9046C67.3025 78.7289 67.6643 78.4313 67.9189 78.0495C68.1734 77.6676 68.3093 77.2187 68.3093 76.7595C68.3086 76.1439 68.0643 75.5537 67.63 75.1184C67.1957 74.6831 66.6069 74.4383 65.9926 74.4376Z" fill="#3F3D56"/>
<path d="M273.103 42.8598C273.103 42.3087 273.266 41.77 273.571 41.3118C273.877 40.8536 274.311 40.4965 274.819 40.2856C275.327 40.0747 275.886 40.0195 276.425 40.127C276.964 40.2345 277.459 40.4999 277.848 40.8896C278.237 41.2792 278.502 41.7757 278.609 42.3162C278.716 42.8567 278.661 43.4169 278.451 43.926C278.241 44.4352 277.884 44.8703 277.427 45.1765C276.97 45.4826 276.432 45.646 275.883 45.646C275.145 45.6452 274.439 45.3514 273.918 44.8291C273.397 44.3067 273.103 43.5985 273.103 42.8598ZM273.566 42.8598C273.566 43.319 273.702 43.7679 273.956 44.1497C274.211 44.5316 274.573 44.8292 274.996 45.0049C275.419 45.1807 275.885 45.2266 276.334 45.1371C276.784 45.0475 277.197 44.8263 277.521 44.5016C277.845 44.1769 278.065 43.7632 278.155 43.3128C278.244 42.8623 278.198 42.3955 278.023 41.9712C277.848 41.5469 277.551 41.1843 277.17 40.9292C276.789 40.674 276.341 40.5379 275.883 40.5379C275.268 40.5386 274.68 40.7834 274.245 41.2187C273.811 41.654 273.567 42.2442 273.566 42.8598Z" fill="#3F3D56"/>
<path d="M259.434 136.2C258.884 136.2 258.347 136.037 257.89 135.731C257.433 135.424 257.076 134.989 256.866 134.48C256.656 133.971 256.6 133.411 256.708 132.87C256.815 132.33 257.08 131.833 257.469 131.444C257.857 131.054 258.353 130.789 258.892 130.681C259.431 130.574 259.99 130.629 260.498 130.84C261.006 131.051 261.44 131.408 261.746 131.866C262.051 132.324 262.214 132.863 262.214 133.414C262.213 134.153 261.92 134.861 261.399 135.383C260.878 135.905 260.171 136.199 259.434 136.2ZM259.434 131.092C258.976 131.092 258.528 131.228 258.147 131.483C257.766 131.738 257.469 132.101 257.294 132.525C257.119 132.95 257.073 133.416 257.162 133.867C257.252 134.317 257.472 134.731 257.796 135.056C258.12 135.38 258.533 135.602 258.982 135.691C259.432 135.781 259.898 135.735 260.321 135.559C260.744 135.383 261.106 135.086 261.36 134.704C261.615 134.322 261.751 133.873 261.751 133.414C261.75 132.798 261.506 132.208 261.072 131.773C260.637 131.338 260.048 131.093 259.434 131.092Z" fill="#3F3D56"/>
<path d="M58.3717 48.1689H52.3484V42.132H58.3717V48.1689ZM52.8117 47.7045H57.9084V42.5963H52.8117V47.7045Z" fill="#3F3D56"/>
<path d="M280.111 100.73H279.647V183.772H280.111V100.73Z" fill="#3F3D56"/>
<path d="M279.969 176.656C284.958 176.656 289.004 167.404 289.004 155.991C289.004 144.578 284.958 135.326 279.969 135.326C274.979 135.326 270.934 144.578 270.934 155.991C270.934 167.404 274.979 176.656 279.969 176.656Z" fill="#3F3D56"/>
<path d="M279.969 129.521C284.958 129.521 289.004 120.269 289.004 108.856C289.004 97.4433 284.958 88.1913 279.969 88.1913C274.979 88.1913 270.934 97.4433 270.934 108.856C270.934 120.269 274.979 129.521 279.969 129.521Z" fill="#3F3D56"/>
<path d="M280.19 91.973L279.747 91.8397C279.775 91.7458 282.499 82.3903 278.026 76.3676C275.5 72.9662 271.165 71.2414 265.142 71.2414V70.777C271.32 70.777 275.781 72.5653 278.399 76.0921C283.01 82.3035 280.219 91.8771 280.19 91.973Z" fill="#3F3D56"/>
<path d="M265.142 76.814C268.341 76.814 270.934 74.2151 270.934 71.0093C270.934 67.8034 268.341 65.2045 265.142 65.2045C261.943 65.2045 259.35 67.8034 259.35 71.0093C259.35 74.2151 261.943 76.814 265.142 76.814Z" fill="#D0CDE1"/>
</g>
<defs>
<filter id="filter0_d" x="0" y="0" width="328" height="222" filterUnits="userSpaceOnUse" color-interpolation-filters="sRGB">
<feFlood flood-opacity="0" result="BackgroundImageFix"/>
<feColorMatrix in="SourceAlpha" type="matrix" values="0 0 0 0 0 0 0 0 0 0 0 0 0 0 0 0 0 0 127 0"/>
<feOffset dy="4"/>
<feGaussianBlur stdDeviation="2"/>
<feColorMatrix type="matrix" values="0 0 0 0 0 0 0 0 0 0 0 0 0 0 0 0 0 0 0.25 0"/>
<feBlend mode="normal" in2="BackgroundImageFix" result="effect1_dropShadow"/>
<feBlend mode="normal" in="SourceGraphic" in2="effect1_dropShadow" result="shape"/>
</filter>
</defs>
</svg>
