<svg width="328" height="222" viewBox="0 0 328 222" fill="none" xmlns="http://www.w3.org/2000/svg">
<g filter="url(#filter0_d)">
<rect x="4" width="320" height="214" fill="white"/>
<rect x="4" width="320" height="214" stroke="black"/>
<g clip-path="url(#clip0)">
<path d="M277.078 212L277.367 211.466C273.489 209.374 268.662 206.77 266.14 202.496C263.655 198.284 263.599 192.563 265.995 187.567C268.034 183.315 271.779 179.505 276.825 176.55C277.82 175.967 278.865 175.415 279.876 174.881C282.318 173.589 284.844 172.254 286.926 170.36C289.794 167.75 291.965 163.371 290.347 159.471C289.815 158.226 288.944 157.155 287.832 156.379C286.721 155.603 285.414 155.154 284.059 155.082L284.025 155.688C285.266 155.754 286.463 156.165 287.482 156.875C288.5 157.586 289.299 158.567 289.787 159.707C291.29 163.332 289.228 167.445 286.516 169.911C284.491 171.754 282 173.071 279.591 174.345C278.574 174.882 277.524 175.438 276.517 176.027C271.366 179.044 267.537 182.944 265.446 187.305C262.965 192.481 263.03 198.42 265.616 202.804C268.223 207.223 273.133 209.872 277.078 212Z" fill="#F1F1F1"/>
<path d="M280.204 158.28C283.143 158.28 285.526 157.125 285.526 155.701C285.526 154.277 283.143 153.122 280.204 153.122C277.265 153.122 274.882 154.277 274.882 155.701C274.882 157.125 277.265 158.28 280.204 158.28Z" fill="#F1F1F1"/>
<path d="M275.946 175.269C278.886 175.269 281.268 174.115 281.268 172.69C281.268 171.266 278.886 170.112 275.946 170.112C273.007 170.112 270.625 171.266 270.625 172.69C270.625 174.115 273.007 175.269 275.946 175.269Z" fill="#F1F1F1"/>
<path d="M285.678 177.999C288.617 177.999 291 176.845 291 175.421C291 173.997 288.617 172.842 285.678 172.842C282.739 172.842 280.356 173.997 280.356 175.421C280.356 176.845 282.739 177.999 285.678 177.999Z" fill="#F1F1F1"/>
<path d="M270.472 192.258C273.412 192.258 275.794 191.104 275.794 189.679C275.794 188.255 273.412 187.101 270.472 187.101C267.533 187.101 265.15 188.255 265.15 189.679C265.15 191.104 267.533 192.258 270.472 192.258Z" fill="#F1F1F1"/>
<path d="M259.828 192.258C262.768 192.258 265.15 191.104 265.15 189.679C265.15 188.255 262.768 187.101 259.828 187.101C256.889 187.101 254.506 188.255 254.506 189.679C254.506 191.104 256.889 192.258 259.828 192.258Z" fill="#F1F1F1"/>
<path d="M78.7507 159.329H59.8668C59.3554 159.329 58.8652 159.126 58.5036 158.765C58.142 158.404 57.9386 157.915 57.938 157.405V95.335C57.9386 94.8249 58.142 94.3358 58.5036 93.9751C58.8652 93.6145 59.3554 93.4116 59.8668 93.411H78.7507C79.262 93.4116 79.7523 93.6145 80.1139 93.9751C80.4755 94.3358 80.6789 94.8249 80.6795 95.335V157.405C80.6789 157.915 80.4755 158.404 80.1139 158.765C79.7523 159.126 79.262 159.329 78.7507 159.329Z" fill="#1EA83C"/>
<path d="M113.188 159.329H94.3038C93.7925 159.329 93.3022 159.126 92.9406 158.765C92.579 158.404 92.3756 157.915 92.375 157.405V70.704C92.3756 70.1939 92.579 69.7049 92.9406 69.3442C93.3022 68.9835 93.7925 68.7806 94.3038 68.78H113.188C113.699 68.7806 114.189 68.9835 114.551 69.3442C114.912 69.7049 115.116 70.1939 115.116 70.704V157.405C115.116 157.915 114.912 158.404 114.551 158.765C114.189 159.126 113.699 159.329 113.188 159.329Z" fill="#1EA83C"/>
<path d="M147.625 159.329H128.741C128.23 159.329 127.739 159.126 127.378 158.765C127.016 158.404 126.813 157.915 126.812 157.405V95.335C126.813 94.8249 127.016 94.3358 127.378 93.9751C127.739 93.6145 128.23 93.4116 128.741 93.411H147.625C148.136 93.4116 148.627 93.6145 148.988 93.9751C149.35 94.3358 149.553 94.8249 149.554 95.335V157.405C149.553 157.915 149.35 158.404 148.988 158.765C148.627 159.126 148.136 159.329 147.625 159.329Z" fill="#1EA83C"/>
<path d="M182.062 159.329H163.178C162.678 159.34 162.195 159.153 161.833 158.808C161.472 158.464 161.262 157.991 161.249 157.492V60.8941C161.262 60.3957 161.472 59.9225 161.833 59.5782C162.195 59.2339 162.678 59.0466 163.178 59.0573H182.062C182.562 59.0466 183.045 59.2339 183.407 59.5782C183.768 59.9225 183.978 60.3957 183.991 60.8941V157.492C183.978 157.991 183.768 158.464 183.407 158.808C183.045 159.153 182.562 159.34 182.062 159.329Z" fill="#1EA83C"/>
<path d="M216.499 159.329H197.615C197.104 159.329 196.614 159.126 196.252 158.765C195.891 158.404 195.687 157.915 195.687 157.405V43.4804C195.687 42.9703 195.891 42.4812 196.252 42.1205C196.614 41.7598 197.104 41.557 197.615 41.5564H216.499C217.011 41.557 217.501 41.7598 217.862 42.1205C218.224 42.4812 218.427 42.9703 218.428 43.4804V157.405C218.427 157.915 218.224 158.404 217.862 158.765C217.501 159.126 217.011 159.329 216.499 159.329Z" fill="#1EA83C"/>
<path d="M69.3087 85.6328C71.4618 85.6328 73.2072 83.8916 73.2072 81.7437C73.2072 79.5958 71.4618 77.8546 69.3087 77.8546C67.1556 77.8546 65.4102 79.5958 65.4102 81.7437C65.4102 83.8916 67.1556 85.6328 69.3087 85.6328Z" fill="#3F3D56"/>
<path d="M103.746 60.3537C105.899 60.3537 107.644 58.6125 107.644 56.4646C107.644 54.3167 105.899 52.5755 103.746 52.5755C101.593 52.5755 99.8472 54.3167 99.8472 56.4646C99.8472 58.6125 101.593 60.3537 103.746 60.3537Z" fill="#3F3D56"/>
<path d="M138.183 85.6328C140.336 85.6328 142.082 83.8916 142.082 81.7437C142.082 79.5958 140.336 77.8546 138.183 77.8546C136.03 77.8546 134.284 79.5958 134.284 81.7437C134.284 83.8916 136.03 85.6328 138.183 85.6328Z" fill="#3F3D56"/>
<path d="M172.62 48.0382C174.773 48.0382 176.519 46.297 176.519 44.1491C176.519 42.0012 174.773 40.26 172.62 40.26C170.467 40.26 168.722 42.0012 168.722 44.1491C168.722 46.297 170.467 48.0382 172.62 48.0382Z" fill="#3F3D56"/>
<path d="M207.057 33.7782C209.21 33.7782 210.956 32.037 210.956 29.8891C210.956 27.7412 209.21 26 207.057 26C204.904 26 203.159 27.7412 203.159 29.8891C203.159 32.037 204.904 33.7782 207.057 33.7782Z" fill="#3F3D56"/>
<path d="M238.628 160.052H37.3041C37.2235 160.052 37.1461 160.02 37.0891 159.963C37.032 159.906 37 159.829 37 159.748C37 159.668 37.032 159.591 37.0891 159.534C37.1461 159.477 37.2235 159.445 37.3041 159.445H238.628C238.708 159.445 238.786 159.477 238.843 159.534C238.9 159.591 238.932 159.668 238.932 159.748C238.932 159.829 238.9 159.906 238.843 159.963C238.786 160.02 238.708 160.052 238.628 160.052Z" fill="#CBCBCB"/>
<path d="M288.806 211.929H190.273C190.193 211.929 190.115 211.897 190.058 211.84C190.001 211.783 189.969 211.706 189.969 211.626C189.969 211.545 190.001 211.468 190.058 211.411C190.115 211.354 190.193 211.322 190.273 211.322H288.806C288.887 211.322 288.964 211.354 289.021 211.411C289.078 211.468 289.11 211.545 289.11 211.626C289.11 211.706 289.078 211.783 289.021 211.84C288.964 211.897 288.887 211.929 288.806 211.929Z" fill="#CBCBCB"/>
<path d="M225.531 155.121C225.781 154.873 225.974 154.573 226.095 154.243C226.216 153.913 226.264 153.56 226.234 153.21C226.204 152.859 226.097 152.519 225.921 152.215C225.746 151.91 225.505 151.647 225.216 151.445L226.412 146.078L223.32 144.558L221.738 152.16C221.43 152.667 221.319 153.268 221.425 153.85C221.532 154.433 221.849 154.956 222.317 155.321C222.784 155.686 223.37 155.867 223.962 155.83C224.554 155.793 225.113 155.541 225.531 155.121Z" fill="#FFB7B7"/>
<path d="M259.344 155.238C259.574 154.972 259.742 154.658 259.838 154.32C259.933 153.981 259.953 153.626 259.896 153.279C259.839 152.932 259.706 152.601 259.507 152.311C259.309 152.02 259.048 151.777 258.745 151.598L259.521 146.155L256.32 144.878L255.333 152.58C255.065 153.108 255 153.716 255.152 154.289C255.303 154.861 255.66 155.358 256.154 155.686C256.649 156.014 257.247 156.149 257.834 156.067C258.422 155.984 258.959 155.689 259.344 155.238L259.344 155.238Z" fill="#FFB7B7"/>
<path d="M235.24 208.657L232.087 208.656L230.587 196.524L235.241 196.525L235.24 208.657Z" fill="#FFB7B7"/>
<path d="M236.045 211.706L225.878 211.705V211.577C225.878 210.53 226.295 209.526 227.037 208.786C227.779 208.045 228.786 207.63 229.835 207.63H229.835L236.045 207.63L236.045 211.706Z" fill="#2F2E41"/>
<path d="M245.785 208.657L242.632 208.656L241.132 196.524L245.785 196.525L245.785 208.657Z" fill="#FFB7B7"/>
<path d="M246.589 211.706L236.422 211.705V211.577C236.422 210.53 236.839 209.526 237.581 208.786C238.324 208.045 239.33 207.63 240.38 207.63H240.38L246.589 207.63L246.589 211.706Z" fill="#2F2E41"/>
<path d="M252.133 106.586L255.533 105.362C255.533 105.362 256.976 105.668 256.976 109.572C256.976 113.476 260.809 149.885 260.809 149.885L254.102 151.647L250.311 117.103L252.133 106.586Z" fill="#2F2E41"/>
<path d="M229.414 106.586L226.014 105.362C226.014 105.362 224.571 105.668 224.571 109.572C224.571 113.476 220.739 149.885 220.739 149.885L227.446 151.647L231.237 117.103L229.414 106.586Z" fill="#2F2E41"/>
<path d="M229.458 148.111L228.528 175.461L230.586 205.715L235.887 205.838L236.659 177.616L241.031 163.505L240.59 205.096L246.593 205.024L250.311 176.41C250.311 176.41 255.221 152.73 252.498 148.111L239.959 143.952L229.458 148.111Z" fill="#2F2E41"/>
<path d="M229.56 144.816L229.257 151.395C229.257 151.395 233.488 153.495 240.924 152.216C248.361 150.937 253.304 151.78 253.304 151.78L252.733 143.393L229.56 144.816Z" fill="#E5E5E5"/>
<path d="M225.879 105.459L235.657 101.185L236.241 98.9462L245.753 99.2211L246.164 101.508L255.533 105.362L251.405 119.681L251.829 129.753L256.976 148.112C256.976 148.112 252.634 151.79 242.203 150.207L240.403 146.589L239.302 150.415C239.302 150.415 230.156 153.772 227.621 149.402L229.458 117.837L225.879 105.459Z" fill="#2F2E41"/>
<path d="M240.91 96.843C244.399 96.843 247.227 94.0217 247.227 90.5416C247.227 87.0614 244.399 84.2402 240.91 84.2402C237.422 84.2402 234.594 87.0614 234.594 90.5416C234.594 94.0217 237.422 96.843 240.91 96.843Z" fill="#FFB7B7"/>
<path d="M248.416 88.0998C248.303 87.587 248.086 87.1028 247.778 86.6771C247.655 85.4998 247.261 84.3668 246.627 83.3662C246.379 82.8974 246.026 82.4914 245.597 82.1795C245.104 81.8967 244.543 81.757 243.975 81.7762C243.872 81.7745 243.687 81.8056 243.52 81.8132C243.414 81.7803 243.306 81.7509 243.198 81.7232C243.135 81.5835 243.01 81.1761 242.975 81.2037L242.505 81.5766C242.306 81.5421 242.106 81.5153 241.905 81.494C241.832 81.2861 241.759 81.0781 241.686 80.8702C241.567 81.0562 241.463 81.251 241.375 81.453C241.175 81.4433 240.975 81.4398 240.775 81.4428L240.375 81.0595C240.352 81.1664 240.298 81.2641 240.219 81.3407C240.141 81.4172 240.042 81.4693 239.934 81.4906C239.75 81.5095 239.567 81.5341 239.384 81.5634C239.369 81.5633 239.354 81.5634 239.34 81.563C238.355 81.5385 237.295 81.4944 236.472 82.0338C236.086 82.2978 235.773 82.653 235.559 83.0676C235.458 83.136 235.357 83.2038 235.259 83.2763C234.928 83.5011 234.642 83.7842 234.414 84.1118C234.248 84.3943 234.122 84.6984 234.04 85.0154C233.726 85.9694 233.58 86.9706 233.61 87.9744C233.643 88.985 234.026 89.9531 234.692 90.7152C235.114 91.1679 235.651 91.5022 236.074 91.9544C236.945 92.8855 237.108 94.1841 237.853 95.1693C238.641 96.2113 240.079 96.897 241.342 97.0936C242.101 97.2077 242.876 97.1711 243.621 96.9857C244.366 96.8003 245.067 96.4699 245.683 96.0135C245.979 95.8079 246.231 95.5449 246.423 95.2403C246.861 94.484 246.675 93.5334 246.838 92.675C247.143 91.0659 248.682 89.7157 248.416 88.0998Z" fill="#2F2E41"/>
<path d="M69.1007 81.987L68.7375 81.5004L103.746 55.5001L138.072 81.0414L172.867 43.3547L172.929 43.3292L206.698 29.4257L206.93 29.9867L173.224 43.8644L138.147 81.8548L103.746 56.2567L69.1007 81.987Z" fill="#3F3D56"/>
</g>
</g>
<defs>
<filter id="filter0_d" x="0" y="0" width="328" height="222" filterUnits="userSpaceOnUse" color-interpolation-filters="sRGB">
<feFlood flood-opacity="0" result="BackgroundImageFix"/>
<feColorMatrix in="SourceAlpha" type="matrix" values="0 0 0 0 0 0 0 0 0 0 0 0 0 0 0 0 0 0 127 0"/>
<feOffset dy="4"/>
<feGaussianBlur stdDeviation="2"/>
<feColorMatrix type="matrix" values="0 0 0 0 0 0 0 0 0 0 0 0 0 0 0 0 0 0 0.25 0"/>
<feBlend mode="normal" in2="BackgroundImageFix" result="effect1_dropShadow"/>
<feBlend mode="normal" in="SourceGraphic" in2="effect1_dropShadow" result="shape"/>
</filter>
<clipPath id="clip0">
<rect width="254" height="186" fill="white" transform="translate(37 26)"/>
</clipPath>
</defs>
</svg>
