<svg width="93" height="27" viewBox="0 0 93 27" fill="none" xmlns="http://www.w3.org/2000/svg">
<path d="M10.7462 26.5603C8.61017 26.5603 6.72617 26.1163 5.09417 25.2283C3.48617 24.3403 2.23817 23.0923 1.35017 21.4843C0.462172 19.8763 0.018172 18.0283 0.018172 15.9403C0.018172 12.9883 0.654172 10.3603 1.92617 8.05632C3.19817 5.72832 4.96217 3.91632 7.21817 2.62032C9.49817 1.32432 12.0782 0.676319 14.9582 0.676319C17.1182 0.676319 19.0142 1.12032 20.6462 2.00832C22.2782 2.87232 23.5382 4.10832 24.4262 5.71632C25.3142 7.30032 25.7582 9.12432 25.7582 11.1883C25.7582 14.1403 25.1222 16.7923 23.8502 19.1443C22.5782 21.4723 20.8022 23.2963 18.5222 24.6163C16.2422 25.9123 13.6502 26.5603 10.7462 26.5603ZM11.6822 20.8723C13.2662 20.8723 14.6582 20.4643 15.8582 19.6483C17.0582 18.8323 17.9822 17.7403 18.6302 16.3723C19.3022 14.9803 19.6382 13.4803 19.6382 11.8723C19.6382 10.1443 19.1582 8.78832 18.1982 7.80432C17.2382 6.82032 15.8942 6.32832 14.1662 6.32832C12.5822 6.32832 11.1782 6.73632 9.95417 7.55232C8.75417 8.36832 7.81817 9.46032 7.14617 10.8283C6.49817 12.1723 6.17417 13.6603 6.17417 15.2923C6.17417 17.0203 6.65417 18.3883 7.61417 19.3963C8.57417 20.3803 9.93017 20.8723 11.6822 20.8723ZM31.547 23.1883H36.923L36.371 26.3083H26.891L29.867 9.46032H33.971L31.547 23.1883ZM46.3445 26.4763C44.9205 26.4763 43.6645 26.1803 42.5765 25.5883C41.5045 24.9963 40.6725 24.1643 40.0805 23.0923C39.4885 22.0203 39.1925 20.7883 39.1925 19.3963C39.1925 17.4283 39.6165 15.6763 40.4645 14.1403C41.3125 12.5883 42.4885 11.3803 43.9925 10.5163C45.5125 9.65232 47.2325 9.22032 49.1525 9.22032C50.5925 9.22032 51.8565 9.51632 52.9445 10.1083C54.0325 10.6843 54.8725 11.5083 55.4645 12.5803C56.0565 13.6363 56.3525 14.8523 56.3525 16.2283C56.3525 18.1963 55.9285 19.9643 55.0805 21.5323C54.2325 23.0843 53.0485 24.3003 51.5285 25.1803C50.0085 26.0443 48.2805 26.4763 46.3445 26.4763ZM46.9685 22.6843C48.0245 22.6843 48.9525 22.4123 49.7525 21.8683C50.5525 21.3243 51.1685 20.5963 51.6005 19.6843C52.0485 18.7563 52.2725 17.7563 52.2725 16.6843C52.2725 15.5323 51.9525 14.6283 51.3125 13.9723C50.6725 13.3163 49.7765 12.9883 48.6245 12.9883C47.5685 12.9883 46.6325 13.2603 45.8165 13.8043C45.0165 14.3483 44.3925 15.0763 43.9445 15.9883C43.5125 16.8843 43.2965 17.8763 43.2965 18.9643C43.2965 20.1163 43.6165 21.0283 44.2565 21.7003C44.8965 22.3563 45.8005 22.6843 46.9685 22.6843ZM68.2116 23.3323H61.9236L60.3876 26.3083H56.0916L65.1636 9.46032H69.9156L73.0356 26.3083H68.6916L68.2116 23.3323ZM67.7316 20.2123L66.7476 13.9723L63.5316 20.2123H67.7316ZM89.963 26.3083H85.859L80.843 15.9163L78.995 26.3083H74.891L77.867 9.46032H81.971L86.987 19.9003L88.835 9.46032H92.939L89.963 26.3083Z" fill="#1EA83C"/>
</svg>
