<svg width="111" height="43" viewBox="0 0 111 43" fill="none" xmlns="http://www.w3.org/2000/svg">
<path d="M55.2378 43C85.7421 43 110.468 33.3721 110.468 21.5036C110.468 9.62789 85.7421 0 55.2378 0C24.7336 0 0 9.62789 0 21.5036C0 33.3721 24.7336 43 55.2378 43Z" fill="#2F2E41" fill-opacity="0.5"/>
<path d="M69.059 16.1997L70.5055 10.7522H51.6486L50.2097 16.1997H56.3818L53.3525 27.6459H59.8502L62.8795 16.1997H69.059Z" fill="white"/>
<path d="M50.0274 10.7522H40.6217L34.6315 23.2721V10.7522H25.5211L19.8186 32.2486H26.0814L29.7923 18.3758V32.2486H34.6315L41.7577 18.3758L38.3422 32.2486H44.3249L50.0274 10.7522Z" fill="white"/>
<path d="M90.6496 10.7522H84.6669L81.5392 22.1912L78.6841 10.7522H72.1258L66.4309 32.2486H72.4212L75.5489 20.552L78.6841 32.2486H84.9547L90.6496 10.7522Z" fill="white"/>
<path d="M52.9433 29.1775L52.1255 32.2485H58.6307L59.4411 29.1775H52.9433Z" fill="white"/>
</svg>
