<svg width="328" height="222" viewBox="0 0 328 222" fill="none" xmlns="http://www.w3.org/2000/svg">
<g filter="url(#filter0_d)">
<rect x="4.5" y="0.5" width="319" height="213" fill="white" stroke="#1EA83C"/>
<g clip-path="url(#clip0)">
<path d="M151.205 200.582C204.654 200.582 247.983 157.224 247.983 103.738C247.983 50.2531 204.654 6.89471 151.205 6.89471C97.756 6.89471 54.427 50.2531 54.427 103.738C54.427 157.224 97.756 200.582 151.205 200.582Z" fill="#F2F2F2"/>
<path d="M67.3999 214C88.6075 214 105.8 211.247 105.8 207.852C105.8 204.456 88.6075 201.704 67.3999 201.704C46.1922 201.704 29 204.456 29 207.852C29 211.247 46.1922 214 67.3999 214Z" fill="#F2F2F2"/>
<path d="M254.729 207.75C287.544 207.75 314.145 203.491 314.145 198.237C314.145 192.983 287.544 188.724 254.729 188.724C221.914 188.724 195.313 192.983 195.313 198.237C195.313 203.491 221.914 207.75 254.729 207.75Z" fill="#F2F2F2"/>
<path d="M241.528 106.798C241.528 106.798 242.034 108.485 239.167 110.004C236.301 111.522 235.458 117.259 238.83 118.947C242.202 120.634 243.214 122.827 241.528 124.346C239.842 125.865 236.806 129.914 240.853 130.926C244.9 131.939 245.406 133.964 244.226 134.807C243.045 135.651 246.923 133.289 246.923 133.289C246.923 133.289 247.598 137.338 251.139 136.326C254.68 135.313 264.628 116.078 259.57 113.379C254.511 110.679 241.528 106.798 241.528 106.798Z" fill="#2F2E41"/>
<path d="M247.639 123.091C247.639 123.091 249.388 129.217 246.327 129.654C244.428 129.95 242.628 130.701 241.08 131.842L246.765 139.28H257.259L263.818 132.717C263.818 132.717 255.073 126.154 256.822 122.216C258.571 118.278 247.639 123.091 247.639 123.091Z" fill="#FFB9B9"/>
<path opacity="0.1" d="M247.639 123.091C247.639 123.091 249.388 129.217 246.327 129.654C244.428 129.95 242.628 130.701 241.08 131.842L246.765 139.28H257.259L263.818 132.717C263.818 132.717 255.073 126.154 256.822 122.216C258.571 118.278 247.639 123.091 247.639 123.091Z" fill="black"/>
<path d="M250.263 199.226L260.32 202.727L267.316 203.164L266.879 197.038L252.449 192.768L250.263 199.226Z" fill="#FFB9B9"/>
<path d="M263.162 197.914C263.162 197.914 263.162 204.039 264.037 204.039C264.911 204.039 276.717 202.727 280.215 204.039C283.714 205.352 288.961 200.539 286.337 197.914C283.714 195.288 279.434 191.35 276.764 192.225C274.094 193.1 263.162 195.288 263.162 195.288V197.914Z" fill="#575A89"/>
<path d="M231.023 192.225C231.023 192.225 225.776 202.727 229.274 203.602C232.772 204.477 236.708 203.164 237.145 202.727C237.582 202.289 243.704 200.539 244.578 201.414C245.453 202.289 245.453 197.914 245.453 197.914L231.023 192.225Z" fill="#575A89"/>
<path d="M235.396 177.786C235.396 177.786 227.088 189.162 233.21 192.225C239.331 195.288 268.628 195.288 270.814 192.225C273.001 189.162 273.875 179.536 270.814 178.661C267.753 177.786 235.396 177.786 235.396 177.786Z" fill="#2F2E41"/>
<path opacity="0.2" d="M235.396 177.786C235.396 177.786 227.088 189.162 233.21 192.225C239.331 195.288 268.628 195.288 270.814 192.225C273.001 189.162 273.875 179.536 270.814 178.661C267.753 177.786 235.396 177.786 235.396 177.786Z" fill="black"/>
<path d="M251.137 126.154C256.692 126.154 261.194 121.648 261.194 116.09C261.194 110.532 256.692 106.026 251.137 106.026C245.583 106.026 241.08 110.532 241.08 116.09C241.08 121.648 245.583 126.154 251.137 126.154Z" fill="#FFB9B9"/>
<path d="M235.396 131.842L244.141 130.092C244.141 130.092 246.327 137.093 253.324 135.78C260.32 134.467 262.069 130.092 262.069 130.092C262.069 130.092 267.316 132.279 267.753 132.279C268.191 132.279 273.875 134.467 273.875 135.78C273.875 137.093 267.316 150.219 267.316 150.219L268.191 173.848L235.833 172.973L238.019 149.782L235.396 131.842Z" fill="#1EA83C"/>
<path d="M230.586 143.219C230.586 143.219 227.962 166.409 229.711 168.159C231.46 169.91 238.457 174.723 238.457 174.723V169.472L234.959 162.909L238.457 147.594L230.586 143.219Z" fill="#FFB9B9"/>
<path d="M275.843 142.562C275.843 142.562 274.312 166.409 274.312 167.284C274.312 168.159 270.377 171.222 269.065 171.222C267.753 171.222 266.879 169.035 266.879 169.035L269.94 165.534L267.753 147.594L275.843 142.562Z" fill="#FFB9B9"/>
<path d="M271.689 176.036C271.689 176.036 291.366 165.097 291.803 176.036C292.24 186.975 281.746 191.35 281.746 191.35C281.746 191.35 254.635 199.485 253.542 196.511C252.449 193.538 250.263 188.725 252.012 188.287C253.761 187.85 255.947 186.975 256.822 187.85C257.696 188.725 268.628 181.286 268.628 181.286L271.689 176.036Z" fill="#2F2E41"/>
<path opacity="0.2" d="M280.871 174.723C280.871 174.723 276.936 176.473 275.624 177.786C274.312 179.099 268.628 181.286 268.628 181.286" stroke="black" stroke-width="2" stroke-miterlimit="10"/>
<path d="M238.019 132.717L235.396 131.842C235.396 131.842 225.776 141.906 228.837 144.531C231.898 147.157 233.647 148.032 234.521 148.907C235.396 149.782 239.769 150.22 239.769 150.22L238.019 132.717Z" fill="#1EA83C"/>
<path d="M269.94 134.905L273.875 135.78C273.875 135.78 276.936 142.343 277.811 143.219C278.685 144.094 276.499 143.656 275.187 145.406C273.875 147.157 272.563 150.219 269.94 150.219C267.316 150.219 263.818 145.844 263.818 145.844L269.94 134.905Z" fill="#1EA83C"/>
<path d="M236.27 179.974C236.27 179.974 219.654 168.159 213.97 176.911C208.285 185.662 238.457 197.476 242.829 199.226C247.202 200.977 251.137 202.727 251.137 202.727C251.137 202.727 255.073 193.1 255.073 191.35C255.073 189.6 252.012 189.6 251.137 189.6C250.263 189.6 246.327 188.725 245.453 187.412C244.578 186.099 236.27 179.974 236.27 179.974Z" fill="#2F2E41"/>
<path opacity="0.2" d="M227.088 176.911C227.088 176.911 231.461 180.411 235.396 181.286C239.331 182.161 240.643 184.349 240.643 184.349" stroke="black" stroke-width="2" stroke-miterlimit="10"/>
<path d="M233.254 160.459L233.603 178.985C233.615 179.597 233.868 180.18 234.307 180.606C234.746 181.032 235.335 181.267 235.947 181.26L270.4 180.873C270.987 180.866 271.55 180.637 271.974 180.232C272.399 179.826 272.654 179.274 272.688 178.688L273.734 160.548C273.752 160.233 273.706 159.917 273.597 159.621C273.489 159.324 273.322 159.052 273.105 158.823C272.889 158.593 272.627 158.41 272.338 158.285C272.048 158.16 271.735 158.096 271.42 158.096H235.571C235.263 158.096 234.958 158.157 234.674 158.276C234.39 158.396 234.133 158.57 233.917 158.79C233.701 159.01 233.532 159.271 233.418 159.558C233.304 159.844 233.248 160.15 233.254 160.459Z" fill="#575A89"/>
<path d="M251.675 103.448C251.675 103.448 252.235 105.317 249.06 106.999C245.884 108.681 244.95 115.037 248.686 116.906C252.422 118.775 253.543 121.205 251.675 122.887C249.807 124.569 246.444 129.055 250.927 130.177C255.41 131.299 255.971 133.542 254.663 134.476C253.356 135.411 257.652 132.794 257.652 132.794C257.652 132.794 258.399 137.28 262.322 136.158C266.244 135.037 270.158 114.65 265.786 109.4C261.72 104.517 251.675 103.448 251.675 103.448Z" fill="#2F2E41"/>
<path d="M250.481 101.523C250.482 98.785 258.67 100.753 262.18 104.576C264.611 107.224 268.303 111.207 265.209 114.015C262.115 116.823 270.512 120.504 272.764 121.62C275.016 122.736 279.463 126.149 275.448 128.438C271.433 130.728 271.498 133.039 273.009 133.586C274.52 134.134 269.677 132.773 269.677 132.773C269.677 132.773 270.167 137.294 266.087 137.273C262.007 137.251 250.303 114.816 253.099 108.58C255.699 102.781 250.481 101.523 250.481 101.523Z" fill="#2F2E41"/>
<path d="M252.255 100.923C241.306 100.264 240.208 108.511 240.208 108.511C240.283 113.283 247.857 110.958 249.961 111.669C252.499 109.842 257.39 106.386 260.889 103.919C258.349 102.129 255.357 101.091 252.255 100.923Z" fill="#2F2E41"/>
<path d="M249.136 153.549C249.136 153.549 239.315 107.49 177.844 74.0778" stroke="#3F3D56" stroke-width="2" stroke-miterlimit="10"/>
<path d="M180.376 73.0732L180.499 73.5782L178.013 74.1816L178.796 76.6193L178.302 76.7779L177.348 73.8087L180.376 73.0732Z" fill="#3F3D56"/>
<path d="M46.766 200.611C46.766 206.445 43.3005 208.481 39.0253 208.481C38.9263 208.481 38.8274 208.48 38.7287 208.478C38.5306 208.474 38.3344 208.464 38.1406 208.451C34.2823 208.178 31.2847 206.036 31.2847 200.611C31.2847 194.996 38.4547 187.912 38.9932 187.387L38.9942 187.386C39.015 187.366 39.0253 187.356 39.0253 187.356C39.0253 187.356 46.766 194.777 46.766 200.611Z" fill="#1EA83C"/>
<path d="M38.7433 207.589L41.5745 203.63L38.7363 208.024L38.7287 208.478C38.5306 208.474 38.3344 208.464 38.1406 208.451L38.4458 202.615L38.4434 202.569L38.4486 202.561L38.4774 202.01L35.6321 197.606L38.4863 201.596L38.4929 201.713L38.7235 197.304L36.2876 192.753L38.7532 196.53L38.9933 187.387L38.9942 187.356V187.386L38.9542 194.596L41.3792 191.738L38.9443 195.217L38.8801 199.165L41.1444 195.376L38.8707 199.746L38.8348 201.941L42.122 196.667L38.8226 202.707L38.7433 207.589Z" fill="#3F3D56"/>
<path d="M83.6869 199.1L85.3427 197.869C85.3427 197.869 86.4388 203.995 85.2157 204.913C83.9927 205.831 79.4063 207.361 79.4063 209.197C79.4063 211.032 69.0104 213.48 68.7046 210.726C68.3988 207.973 69.6219 206.443 69.6219 206.443C69.6219 206.443 74.5141 201.547 75.1256 200.629C75.7371 199.712 77.2659 197.876 77.2659 197.876L83.6869 199.1Z" fill="#2F2E41"/>
<path d="M59.226 122.913C59.226 122.913 59.2718 123.183 59.3513 123.675C59.4247 124.113 59.5256 124.731 59.6479 125.493C60.9321 133.335 64.6777 156.42 64.4239 157.182C64.1181 158.1 61.9778 161.465 64.4239 162.383C64.6593 162.472 64.9131 162.76 65.1852 163.212C65.7105 164.188 66.1435 165.21 66.4786 166.266C67.9371 170.501 69.4965 177.278 70.3985 181.971C70.7929 184.034 71.062 185.692 71.1415 186.561C71.1691 186.762 71.1722 186.965 71.1507 187.167C70.8449 188.391 72.9852 192.674 73.9025 193.898C74.8198 195.122 76.3486 196.346 76.0428 197.57C75.7371 198.794 83.6869 202.159 84.6042 200.018C85.5215 197.876 85.5215 196.652 85.8272 196.04C86.133 195.428 86.4387 191.144 84.9099 190.532C83.3811 189.921 84.2984 179.212 82.7696 177.07C82.259 176.357 81.4793 173.943 80.6629 171.039C80.3419 169.901 80.0177 168.689 79.6997 167.475C78.4094 162.497 77.2659 157.488 77.2659 157.488L77.5716 121.689L60.7548 119.548L60.3237 120.499L59.4645 122.387L59.226 122.913Z" fill="#2F2E41"/>
<path d="M58.3087 181.659C58.3087 181.659 55.8626 179.212 54.6396 181.659C53.4165 184.107 52.1935 193.592 50.0532 195.734C47.9128 197.876 45.161 208.585 48.2186 209.197C51.2762 209.808 54.6396 208.279 54.9453 206.443C55.2511 204.607 61.6721 195.122 61.6721 194.204C61.6721 193.286 57.3914 189.921 57.3914 189.921L58.3087 181.659Z" fill="#2F2E41"/>
<path d="M95.9173 106.085C95.9173 106.085 91.9424 141.883 91.0251 145.249C90.1079 148.615 85.2157 161.465 83.6869 163.607C82.158 165.749 72.3737 183.189 71.1506 184.107C69.9276 185.025 67.4815 187.473 67.4815 187.473C67.4815 187.473 62.8951 192.062 62.2835 192.98C61.672 193.898 56.4741 191.144 56.1683 189.309C55.8625 187.473 56.4741 184.413 56.7798 183.189C57.0856 181.965 56.1683 180.129 57.0856 179.212C58.0029 178.294 62.5893 173.704 62.5893 171.562C62.5893 169.421 70.5391 156.876 73.5967 154.122C76.6543 151.368 76.0428 146.779 76.0428 146.779V128.115L59.2259 122.913C59.2259 122.913 60.1432 108.227 62.2835 108.227C64.4239 108.227 92.5539 103.331 95.9173 106.085Z" fill="#2F2E41"/>
<path d="M71.1507 54.9882C76.7233 54.9882 81.2408 50.4676 81.2408 44.8912C81.2408 39.3148 76.7233 34.7943 71.1507 34.7943C65.5781 34.7943 61.0605 39.3148 61.0605 44.8912C61.0605 50.4676 65.5781 54.9882 71.1507 54.9882Z" fill="#9F616A"/>
<path d="M74.5141 52.8464C74.5141 52.8464 75.7371 57.4359 77.2659 58.6598C78.7947 59.8837 73.291 65.0852 73.291 65.0852L62.8951 65.6971L61.0605 59.8837C61.0605 59.8837 64.4239 53.1524 63.5066 48.8688C62.5894 44.5852 74.5141 52.8464 74.5141 52.8464Z" fill="#9F616A"/>
<path d="M78.7947 58.0479C78.7947 58.0479 76.0429 58.3538 75.4313 59.2717C74.8198 60.1896 70.5391 62.9434 67.1758 62.3314C63.8124 61.7195 61.672 60.8016 61.0605 61.1075C60.449 61.4135 59.226 67.8389 59.226 67.8389L62.5893 77.6299L61.9778 104.555L61.0605 111.898C61.0605 111.898 59.226 109.451 66.5642 110.98C73.9025 112.51 83.3811 109.757 86.4388 109.451C89.4964 109.145 94.6943 108.227 95.0001 106.391C95.3059 104.555 94.0828 97.8238 94.0828 97.8238L89.1906 77.3239L86.133 66.309L78.7947 58.0479Z" fill="#1EA83C"/>
<path d="M75.9026 56.6669C75.9026 56.6669 78.489 55.2941 79.4063 56.518C80.3236 57.7419 91.9425 59.5777 91.9425 60.4956C91.9425 61.4135 94.3886 86.197 93.7771 88.3388C93.1656 90.4806 95.0001 92.9283 95.0001 92.9283L97.1405 102.107C97.1405 102.107 102.95 119.548 100.504 120.16C98.0577 120.772 95.9174 120.16 95.0001 120.16C94.0828 120.16 94.3886 108.533 91.9425 105.473C89.4964 102.413 86.133 94.7641 85.5215 93.2343C84.91 91.7045 77.2659 70.5926 77.5717 68.1448C77.8775 65.6971 75.9026 56.6669 75.9026 56.6669Z" fill="#D0CDE1"/>
<path d="M63.2009 58.0479C63.2009 58.0479 60.7548 58.0479 60.449 58.6598C60.1433 59.2717 57.0856 63.2493 55.8626 64.1672C54.6395 65.0851 50.3589 69.0627 50.3589 69.9806C50.3589 70.8985 59.226 77.6299 59.226 77.6299C59.226 77.6299 62.8951 95.682 61.0605 101.801C59.226 107.921 56.4741 122.607 57.6972 123.525C58.9202 124.443 61.6721 124.749 61.6721 123.525C61.6721 122.301 63.5066 109.145 65.0354 106.391C66.5643 103.637 71.1507 86.197 69.3161 81.3015C67.4815 76.406 63.2009 58.0479 63.2009 58.0479Z" fill="#D0CDE1"/>
<path d="M103.561 88.3388C103.561 88.3388 103.867 97.8238 100.504 102.719C97.1404 107.615 95 113.122 95 113.122C95 113.122 89.4963 111.592 88.5791 109.757C87.6618 107.921 81.8523 109.451 81.8523 108.839C81.8523 108.227 88.8848 105.167 89.4963 104.555C90.1079 103.943 92.2482 103.943 93.4712 102.719C94.6943 101.495 95 98.7418 95 98.7418L96.2231 90.7866L103.561 88.3388Z" fill="#9F616A"/>
<path d="M78.1002 38.6656C78.8764 38.5951 79.677 38.5174 80.3631 38.1472C81.9002 37.3177 82.3079 34.9553 81.1377 33.658C80.815 33.3279 80.4542 33.0375 80.0627 32.793L77.7385 31.21C76.7106 30.5098 75.6583 29.7982 74.4594 29.4682C73.375 29.1696 72.2297 29.2003 71.1072 29.2701C68.9281 29.4057 66.7355 29.6856 64.686 30.4385C62.6364 31.1914 60.7245 32.4509 59.4832 34.2482C57.5153 37.0975 57.4883 40.9402 58.5721 44.2296C59.656 47.5189 61.7148 50.3833 63.7434 53.1896L64.796 48.0501C64.8898 47.5924 65.011 47.0907 65.3915 46.8198C66.3371 46.1464 67.4938 47.5289 68.6543 47.52C69.4 47.5142 70.0261 46.9005 70.3087 46.2099C70.5913 45.5193 70.6099 44.7546 70.6753 44.0112C70.8138 42.4367 71.3637 40.246 72.8538 39.3776C74.2422 38.5685 76.5395 38.8075 78.1002 38.6656Z" fill="#2F2E41"/>
<path opacity="0.1" d="M77.5342 123.16C77.5342 123.16 76.5015 153.051 75.89 153.969C75.2784 154.887 75.89 123.066 75.89 123.066L77.5342 123.16Z" fill="black"/>
<path d="M89.4963 60.4956H91.9424C91.9424 60.4956 102.338 74.5702 101.115 75.4881C99.8922 76.406 101.115 78.8538 101.115 78.8538L103.561 83.4433C103.561 83.4433 106.619 86.197 105.702 86.809C104.784 87.4209 103.561 89.8687 103.561 89.8687C103.561 89.8687 97.4462 88.9507 95.6116 92.6224L91.6459 87.6126L89.4963 60.4956Z" fill="#D0CDE1"/>
<path d="M90.361 65.0227L81.9674 68.4911L88.4265 84.1434L96.8201 80.675L90.361 65.0227Z" fill="#2F2E41"/>
<path d="M89.3771 74.2029C90.3043 73.8198 90.7707 72.8183 90.419 71.966C90.0673 71.1137 89.0306 70.7334 88.1035 71.1165C87.1764 71.4996 86.7099 72.5011 87.0616 73.3534C87.4133 74.2056 88.45 74.586 89.3771 74.2029Z" fill="#1EA83C"/>
<path d="M83.3812 84.9731C83.3812 84.9731 61.3663 103.331 57.6972 97.5179C54.0281 91.7044 61.6721 86.8089 61.6721 86.8089C61.6721 86.8089 68.3989 87.1149 76.0429 82.2194L83.6869 78.8538C83.6869 78.8538 90.6654 68.884 93.0434 72.6804C95.4214 76.4768 88.9841 83.0841 83.3812 84.9731Z" fill="#9F616A"/>
<path d="M53.7223 68.7568L50.3589 69.9806V79.1597L49.1359 80.9955C49.1359 80.9955 49.4416 84.6672 50.3589 85.5851C51.2762 86.503 53.1108 86.197 52.4992 88.3388C52.1317 89.7351 52.028 91.1879 52.1935 92.6224C52.1935 92.6224 57.6972 99.6596 58.003 98.7417C58.3087 97.8238 62.5894 86.503 63.2009 86.503C63.8124 86.503 57.0857 68.7568 57.0857 68.7568H53.7223Z" fill="#D0CDE1"/>
<path d="M93.9299 115.111C93.9299 115.111 97.0914 112.051 95.5107 111.898C93.9299 111.745 88.4262 108.686 87.5089 110.216C86.5916 111.745 93.9299 115.111 93.9299 115.111Z" fill="#2F2E41"/>
<path d="M154.059 56.7446C156.495 56.7446 158.47 55.6984 158.47 54.4079C158.47 53.1173 156.495 52.0712 154.059 52.0712C151.623 52.0712 149.648 53.1173 149.648 54.4079C149.648 55.6984 151.623 56.7446 154.059 56.7446Z" fill="#57B894"/>
<path d="M170.924 62.1969C160.978 58.438 151.032 58.438 141.086 62.1969V49.9941C150.815 47.0562 161.195 47.0562 170.924 49.9941V62.1969Z" stroke="#3F3D56" stroke-width="2" stroke-miterlimit="10"/>
<path d="M166.772 59.6733C159.594 56.9604 152.416 56.9604 145.237 59.6733V50.8661C152.259 48.7457 159.75 48.7457 166.772 50.8661V59.6733Z" stroke="#3F3D56" stroke-width="2" stroke-miterlimit="10"/>
<path d="M155.616 55.7061C158.052 55.7061 160.027 54.6599 160.027 53.3694C160.027 52.0788 158.052 51.0327 155.616 51.0327C153.18 51.0327 151.205 52.0788 151.205 53.3694C151.205 54.6599 153.18 55.7061 155.616 55.7061Z" stroke="#3F3D56" stroke-width="2" stroke-miterlimit="10"/>
<path d="M157.302 71.3786C159.689 70.8911 161.415 69.4709 161.157 68.2064C160.899 66.942 158.755 66.3121 156.368 66.7995C153.982 67.287 152.256 68.7072 152.514 69.9717C152.771 71.2362 154.915 71.866 157.302 71.3786Z" fill="#57B894"/>
<path d="M174.916 73.3459C164.42 71.6532 154.675 73.6435 145.681 79.3167L143.242 67.3604C152.188 62.535 162.358 60.458 172.478 61.3896L174.916 73.3459Z" stroke="#3F3D56" stroke-width="2" stroke-miterlimit="10"/>
<path d="M170.344 71.704C162.769 70.4823 155.735 71.9188 149.244 76.0134L147.484 67.384C153.941 63.9013 161.28 62.4023 168.584 63.0746L170.344 71.704Z" stroke="#3F3D56" stroke-width="2" stroke-miterlimit="10"/>
<path d="M158.62 70.0495C161.007 69.562 162.733 68.1418 162.475 66.8773C162.217 65.6129 160.073 64.983 157.686 65.4704C155.299 65.9579 153.573 67.3781 153.831 68.6426C154.089 69.9071 156.233 70.5369 158.62 70.0495Z" stroke="#3F3D56" stroke-width="2" stroke-miterlimit="10"/>
<path d="M160.321 83.9192C160.41 82.6318 158.513 81.451 156.083 81.2818C153.653 81.1125 151.61 82.019 151.52 83.3064C151.431 84.5939 153.328 85.7747 155.759 85.9439C158.189 86.1131 160.231 85.2067 160.321 83.9192Z" fill="#57B894"/>
<path d="M172.204 92.5546C162.543 88.1138 152.621 87.4229 142.439 90.4819L143.285 78.3085C153.195 76.0536 163.549 76.7746 173.051 80.3812L172.204 92.5546Z" stroke="#3F3D56" stroke-width="2" stroke-miterlimit="10"/>
<path d="M168.238 89.7487C161.265 86.5436 154.104 86.045 146.755 88.2527L147.366 79.4667C154.518 77.8393 161.991 78.3596 168.849 80.9627L168.238 89.7487Z" stroke="#3F3D56" stroke-width="2" stroke-miterlimit="10"/>
<path d="M161.946 82.9913C162.035 81.7039 160.138 80.5231 157.708 80.3538C155.278 80.1846 153.235 81.0911 153.145 82.3785C153.056 83.6659 154.953 84.8468 157.384 85.016C159.814 85.1852 161.856 84.2787 161.946 82.9913Z" stroke="#3F3D56" stroke-width="2" stroke-miterlimit="10"/>
<path d="M136.655 62.4802C136.655 62.4802 117.586 59.8697 103.968 67.8557" stroke="#3F3D56" stroke-width="2" stroke-miterlimit="10"/>
<path d="M104.427 65.172L104.922 65.3288L104.148 67.7691L106.637 68.3634L106.516 68.8689L103.485 68.1443L104.427 65.172Z" fill="#3F3D56"/>
</g>
</g>
<defs>
<filter id="filter0_d" x="0" y="0" width="328" height="222" filterUnits="userSpaceOnUse" color-interpolation-filters="sRGB">
<feFlood flood-opacity="0" result="BackgroundImageFix"/>
<feColorMatrix in="SourceAlpha" type="matrix" values="0 0 0 0 0 0 0 0 0 0 0 0 0 0 0 0 0 0 127 0"/>
<feOffset dy="4"/>
<feGaussianBlur stdDeviation="2"/>
<feColorMatrix type="matrix" values="0 0 0 0 0 0 0 0 0 0 0 0 0 0 0 0 0 0 0.25 0"/>
<feBlend mode="normal" in2="BackgroundImageFix" result="effect1_dropShadow"/>
<feBlend mode="normal" in="SourceGraphic" in2="effect1_dropShadow" result="shape"/>
</filter>
<clipPath id="clip0">
<rect width="285.145" height="207.105" fill="white" transform="translate(29 6.89471)"/>
</clipPath>
</defs>
</svg>
